<?xml version="1.0" encoding="utf-8"?>
<svg xmlns="http://www.w3.org/2000/svg" viewBox="0 0 249.3 144.9" width="249.3px" height="144.9px">
  <defs>
    <style>
      .cls-1 {
        fill: #1e1e1e;
      }

      .cls-2 {
        fill: #ffa600;
        opacity: var(--fill-opacity, 1);
      }

      .cls-3 {
        fill: #1f86fb;
        opacity: var(--fill-opacity, 1);
      }

      .cls-4 {
        fill: #00aa47;
        opacity: var(--fill-opacity, 1);
      }

      .cls-5 {
        fill: #fd2b25;
        opacity: var(--fill-opacity, 1);
      }
    </style>
  </defs>
  <g transform="matrix(0.9999999999999999, 0, 0, 0.9999999999999999, -1.1368683772161603e-13, -5.684341886080802e-14)">
    <g transform="matrix(1, 0, 0, 1, -175.3, -153.8)">
        <g>
        <rect class="cls-5" x="179" y="182.6" width="114.4" height="49.4" rx="24.7" ry="24.7" transform="translate(-76.6 176.8) rotate(-35.7)"/>
        <path class="cls-1" d="M209.9,252.9c-1.4,0-2.9-.1-4.3-.4-7-1.1-13.1-5-17.3-10.7-4.1-5.8-5.8-12.8-4.6-19.8,1.1-7,5-13.1,10.7-17.3l52.8-37.9c5.8-4.1,12.8-5.8,19.8-4.6,7,1.1,13.1,5,17.3,10.7h0c4.1,5.8,5.8,12.8,4.6,19.8-1.1,7-5,13.1-10.7,17.3l-52.8,37.9c-4.6,3.3-9.9,5-15.4,5ZM262.6,165.5c-4.7,0-9.4,1.5-13.3,4.3l-52.8,37.9c-5,3.6-8.2,8.8-9.2,14.9-1,6,.4,12.1,4,17,3.6,5,8.8,8.2,14.9,9.2,6,1,12.1-.4,17-4l52.8-37.9c5-3.6,8.2-8.8,9.2-14.9,1-6-.4-12.1-4-17h0c-3.6-5-8.8-8.2-14.9-9.2-1.2-.2-2.5-.3-3.7-.3Z"/>
        </g>
        <g>
        <rect class="cls-3" x="211.5" y="188.1" width="49.4" height="114.4" rx="24.7" ry="24.7" transform="translate(-100.8 294) rotate(-54.3)"/>
        <path class="cls-1" d="M262.6,290.8c-5.5,0-10.9-1.7-15.4-5l-52.8-37.9c-11.9-8.5-14.6-25.2-6.1-37.1h0c4.1-5.8,10.3-9.6,17.3-10.7,7-1.1,14,.5,19.8,4.6l52.8,37.9c11.9,8.5,14.6,25.2,6.1,37.1-4.1,5.8-10.3,9.6-17.3,10.7-1.5.2-2.9.4-4.3.4ZM209.9,203.5c-1.2,0-2.5.1-3.7.3-6,1-11.3,4.3-14.9,9.2h0c-3.6,5-5,11-4,17,1,6,4.3,11.3,9.2,14.9l52.8,37.9c5,3.6,11,5,17,4,6-1,11.3-4.3,14.9-9.2,3.6-5,5-11,4-17-1-6-4.3-11.3-9.2-14.9l-52.8-37.9c-3.9-2.8-8.5-4.3-13.3-4.3Z"/>
        </g>
        <g>
        <rect class="cls-2" x="306.6" y="220.6" width="114.4" height="49.4" rx="24.7" ry="24.7" transform="translate(-74.8 258.4) rotate(-35.7)"/>
        <path class="cls-1" d="M337.4,290.8c-8.3,0-16.4-3.8-21.6-11-8.5-11.9-5.8-28.5,6.1-37.1l52.8-37.9c5.8-4.1,12.8-5.8,19.8-4.6,7,1.1,13.1,5,17.3,10.7,8.5,11.9,5.8,28.5-6.1,37.1l-52.8,37.9c-4.7,3.4-10.1,5-15.5,5ZM390.1,203.5c-4.7,0-9.4,1.5-13.3,4.3l-52.8,37.9c-10.2,7.4-12.6,21.7-5.2,31.9,7.4,10.2,21.7,12.6,31.9,5.2l52.8-37.9c10.2-7.4,12.6-21.7,5.2-31.9-3.6-5-8.8-8.2-14.9-9.2-1.2-.2-2.5-.3-3.7-.3Z"/>
        </g>
        <g>
        <rect class="cls-4" x="339.1" y="150.1" width="49.4" height="114.4" rx="24.7" ry="24.7" transform="translate(-16.9 381.7) rotate(-54.3)"/>
        <path class="cls-1" d="M390.1,252.9c-5.5,0-10.9-1.7-15.4-5l-52.8-37.9c-11.9-8.5-14.6-25.2-6.1-37.1h0c8.5-11.9,25.2-14.6,37.1-6.1l52.8,37.9c11.9,8.5,14.6,25.2,6.1,37.1-4.1,5.8-10.3,9.6-17.3,10.7-1.5.2-2.9.4-4.3.4ZM318.8,175c-3.6,5-5,11-4,17,1,6,4.3,11.3,9.2,14.9l52.8,37.9c5,3.6,11,5,17,4,6-1,11.3-4.3,14.9-9.2,3.6-5,5-11,4-17-1-6-4.3-11.3-9.2-14.9l-52.8-37.9c-10.2-7.4-24.5-5-31.9,5.2h0Z"/>
        </g>
    </g>
  </g>
</svg>